<svg aria-hidden="true" style="position: absolute; width: 0; height: 0; overflow: hidden;" version="1.1" xmlns="http://www.w3.org/2000/svg" xmlns:xlink="http://www.w3.org/1999/xlink">
<defs>
<symbol id="mail" viewBox="0 0 32 32">
<path d="M4.665 4.057c-0.855 0.144-1.472 0.473-2.137 1.137-0.505 0.505-0.788 0.936-0.979 1.491-0.245 0.712-0.244 0.677-0.216 9.635l0.027 8.453 0.14 0.409c0.228 0.667 0.495 1.089 1.028 1.623s0.956 0.8 1.623 1.028l0.409 0.14h22.88l0.409-0.14c0.667-0.228 1.089-0.495 1.623-1.028s0.8-0.956 1.028-1.623l0.14-0.409 0.027-8.453c0.028-8.957 0.029-8.923-0.216-9.635-0.191-0.555-0.473-0.985-0.979-1.491-0.547-0.547-0.988-0.821-1.657-1.033l-0.428-0.135-11.227-0.008c-6.175-0.004-11.348 0.013-11.495 0.039zM27.012 6.727c0.279 0.076 0.617 0.315 0.733 0.513 0.088 0.151 0.088 0.163 0 0.237-0.295 0.252-11.677 8.172-11.745 8.172s-11.451-7.92-11.745-8.172c-0.088-0.075-0.088-0.087 0-0.237 0.111-0.189 0.456-0.439 0.709-0.511 0.271-0.079 21.768-0.081 22.048-0.003zM15.607 18.616c0.253 0.083 0.533 0.083 0.787 0 0.109-0.037 2.767-1.863 5.904-4.059l5.704-3.993-0.013 6.892c-0.015 6.724-0.017 6.896-0.119 7.101-0.088 0.156-0.191 0.291-0.309 0.409l0-0c-0.408 0.396 0.532 0.367-11.56 0.367s-11.152 0.029-11.56-0.367c-0.118-0.119-0.221-0.253-0.304-0.4l-0.005-0.009c-0.101-0.205-0.104-0.377-0.119-7.101l-0.013-6.892 5.704 3.993c3.137 2.196 5.795 4.021 5.904 4.059z"></path>
</symbol>
<symbol id="phone" viewBox="0 0 32 32">
<path d="M4.827 1.389c-1.251 0.224-2.287 0.997-2.864 2.055l-0.011 0.021c-0.472 0.905-0.552 1.695-0.328 3.228 0.54 3.701 1.701 7.023 3.54 10.133 2.191 3.705 5.060 6.771 8.457 9.037 2.921 1.951 5.709 3.207 8.859 3.996 1.603 0.401 3.425 0.7 4.269 0.7 1.448 0 2.872-0.916 3.515-2.26 0.379-0.792 0.376-0.768 0.376-3.793 0-2.703-0.001-2.723-0.125-3.12-0.4-1.281-1.348-2.269-2.577-2.685-0.24-0.070-0.546-0.137-0.858-0.188l-0.049-0.007c-1.272-0.212-1.671-0.312-3.031-0.759-0.767-0.252-0.873-0.273-1.469-0.296-0.541-0.020-0.717-0.005-1.12 0.095-0.861 0.216-1.313 0.496-2.22 1.375l-0.625 0.608-0.256-0.173c-1.277-0.865-2.080-1.524-3.111-2.555-0.814-0.797-1.55-1.668-2.2-2.603l-0.039-0.059-0.492-0.701 0.609-0.627c0.648-0.668 0.883-0.973 1.112-1.447 0.288-0.599 0.343-0.873 0.34-1.737l-0.001-0.8-0.308-0.933c-0.283-0.785-0.525-1.721-0.683-2.685l-0.013-0.095c-0.067-0.419-0.145-0.77-0.239-1.114l0.017 0.074c-0.35-1.022-1.071-1.839-2-2.305l-0.023-0.010c-0.801-0.395-0.764-0.391-3.627-0.403-1.408-0.007-2.68 0.009-2.827 0.035zM9.879 4.056c0.272 0.075 0.629 0.359 0.772 0.612 0.064 0.115 0.156 0.437 0.204 0.717 0.227 1.331 0.449 2.224 0.851 3.412 0.221 0.655 0.241 1.025 0.077 1.389-0.075 0.167-0.416 0.551-1.113 1.253-0.584 0.589-1.051 1.107-1.116 1.237-0.156 0.309-0.149 0.709 0.016 1.065 0.151 0.321 0.807 1.38 1.207 1.944 1.629 2.283 3.591 4.205 5.838 5.741l0.079 0.051c1.287 0.86 1.716 1.080 2.107 1.080 0.468-0.001 0.657-0.135 1.809-1.271 1.155-1.136 1.221-1.181 1.773-1.181 0.16 0 0.48 0.073 0.82 0.188 1.169 0.396 2.065 0.621 3.267 0.821 0.391 0.065 0.713 0.152 0.851 0.228 0.263 0.145 0.547 0.5 0.624 0.777 0.069 0.249 0.073 4.485 0.005 4.781-0.113 0.484-0.621 0.931-1.115 0.977-0.491 0.048-2.511-0.287-3.848-0.636-5.48-1.432-10.455-4.745-13.793-9.191-2.407-3.203-3.983-6.713-4.707-10.48-0.211-1.092-0.353-2.271-0.307-2.516 0.043-0.229 0.32-0.659 0.516-0.803 0.327-0.24 0.441-0.249 2.771-0.252 1.368-0.001 2.289 0.019 2.412 0.053z"></path>
</symbol>
<symbol id="map-pin" viewBox="0 0 32 32">
<path d="M14.773 0.060c-2.499 0.22-4.959 1.203-7.040 2.812-0.663 0.512-1.828 1.704-2.356 2.408-1.867 2.493-2.801 5.424-2.695 8.445 0.088 2.48 0.839 4.855 2.375 7.501 1.896 3.269 5.309 6.912 9.228 9.851 1.113 0.835 1.232 0.896 1.715 0.896s0.601-0.061 1.715-0.896c1.667-1.261 3.144-2.549 4.527-3.931l-0 0c4.033-4.029 6.351-8.029 6.967-12.027 0.136-0.879 0.136-2.779 0-3.653-0.367-2.451-1.343-4.625-2.767-6.429l0.022 0.029c-0.449-0.58-1.611-1.741-2.196-2.195-2.756-2.132-6.072-3.115-9.493-2.812zM16.979 2.721c2.517 0.232 4.746 1.316 6.429 2.956l-0.002-0.002c0.877 0.843 1.605 1.832 2.146 2.931l0.027 0.061c1.293 2.632 1.423 5.653 0.364 8.489-0.775 2.076-2.048 4.136-3.888 6.292-1.060 1.243-3.007 3.129-4.496 4.359-0.623 0.515-1.517 1.207-1.559 1.207-0.045 0-0.951-0.7-1.547-1.195-1.544-1.283-3.453-3.132-4.509-4.369-2.387-2.795-3.888-5.56-4.397-8.104-0.125-0.612-0.197-1.315-0.197-2.035 0-2.585 0.925-4.954 2.462-6.793l-0.014 0.017c0.955-1.158 2.134-2.094 3.475-2.751l0.061-0.027c1.358-0.681 2.958-1.080 4.652-1.080 0.35 0 0.696 0.017 1.037 0.050l-0.043-0.003zM15.144 8.081c-1.504 0.235-2.953 1.217-3.719 2.523-0.472 0.779-0.752 1.721-0.752 2.727 0 2.226 1.367 4.133 3.307 4.928l0.036 0.013c0.588 0.244 1.271 0.385 1.987 0.385 2.224 0 4.13-1.366 4.923-3.304l0.013-0.035c0.244-0.587 0.386-1.268 0.386-1.983 0-0.713-0.141-1.394-0.398-2.015l0.013 0.035c-0.703-1.728-2.244-2.984-4.104-3.274l-0.030-0.004c-0.246-0.043-0.53-0.068-0.82-0.068-0.298 0-0.59 0.026-0.873 0.076l0.030-0.004zM16.697 10.764c1.002 0.287 1.753 1.115 1.923 2.14l0.002 0.016c0.133 0.871-0.125 1.657-0.752 2.285-0.535 0.537-1.141 0.795-1.871 0.795-0.687 0-1.283-0.237-1.796-0.713-1.773-1.648-0.619-4.613 1.796-4.613 0.191 0 0.504 0.041 0.697 0.091z"></path>
</symbol>
<symbol id="logo" viewBox="0 0 39 32">
<path d="M17.374 1.095c0.023 0.609 0.059 1.513 0.081 2.010l0.040 0.903h0.375l0.019-0.641 0.019-0.641 1.341-0.037 0.471 0.627c0.438 0.582 0.487 0.626 0.701 0.626 0.174 0 0.214-0.020 0.167-0.082-0.511-0.666-0.873-1.169-0.869-1.211 0.002-0.030 0.128-0.143 0.279-0.252 0.364-0.262 0.505-0.557 0.504-1.050-0.001-0.514-0.186-0.847-0.618-1.114-0.321-0.199-0.327-0.2-1.437-0.222l-1.114-0.022 0.042 1.106zM21.639 0.043c0.019 0.031 0.292 0.677 0.606 1.434l0.57 1.377-0.102 0.656c-0.056 0.361-0.096 0.661-0.088 0.667s0.093 0.029 0.19 0.053c0.208 0.050 0.209 0.047 0.317-0.753l0.077-0.565 0.973-1.144c0.535-0.629 0.959-1.166 0.943-1.193s-0.101-0.049-0.189-0.049c-0.126 0-0.342 0.213-0.997 0.983-0.635 0.746-0.85 0.959-0.891 0.885-0.030-0.054-0.258-0.587-0.506-1.186s-0.461-1.097-0.472-1.108c-0.059-0.053-0.46-0.106-0.43-0.057zM13.997 0.621c-0.712 0.16-1.123 0.265-1.531 0.376l0.308-0.071c-0.049 0.018 0.075 0.656 0.374 1.924 0.246 1.043 0.461 1.91 0.478 1.927s0.639-0.111 1.382-0.285l1.35-0.317-0.039-0.165c-0.016-0.073-0.032-0.132-0.051-0.189l0.004 0.014c-0.004-0.005-0.531 0.111-1.172 0.259s-1.178 0.256-1.193 0.24c-0.052-0.054-0.33-1.372-0.296-1.406 0.018-0.018 0.46-0.132 0.982-0.253 0.906-0.21 0.948-0.226 0.931-0.375-0.010-0.086-0.025-0.163-0.034-0.171s-0.455 0.087-0.992 0.213c-0.537 0.126-0.988 0.217-1.003 0.202-0.041-0.041-0.345-1.322-0.32-1.347 0.011-0.012 0.515-0.135 1.118-0.275s1.108-0.264 1.121-0.277c0.064-0.065-0.065-0.313-0.159-0.306-0.059 0.004-0.625 0.132-1.257 0.284zM19.579 0.515c0.39 0.189 0.611 0.664 0.505 1.086-0.059 0.233-0.351 0.558-0.591 0.658-0.23 0.096-1.595 0.198-1.641 0.122-0.016-0.026-0.040-0.477-0.053-1.001l-0.023-0.953 0.526-0.039c0.651-0.047 0.985-0.014 1.277 0.126zM28.72 1.922l-0.146 0.345-0.142-0.19c-0.345-0.461-0.338-0.455-0.424-0.352-0.065 0.078-0.036 0.153 0.15 0.397 0.127 0.166 0.23 0.318 0.23 0.338s-0.111 0.037-0.246 0.038c-0.372 0.001-0.542 0.065-0.542 0.202 0 0.098 0.038 0.116 0.197 0.091l0.394-0.063c0.234-0.037 0.238-0.013 0.059 0.393-0.113 0.255-0.122 0.322-0.049 0.369 0.116 0.074 0.187 0.073 0.187-0.002 0-0.033 0.059-0.199 0.133-0.37l0.133-0.309 0.232 0.303c0.127 0.167 0.258 0.304 0.29 0.304 0.151 0 0.129-0.167-0.057-0.427-0.246-0.342-0.248-0.362-0.049-0.362 0.345 0 0.567-0.081 0.567-0.205 0-0.136-0.023-0.139-0.477-0.064-0.171 0.028-0.312 0.029-0.312 0.001s0.059-0.188 0.131-0.357c0.073-0.169 0.115-0.334 0.095-0.367-0.087-0.142-0.219-0.037-0.355 0.285zM8.895 2.45c-0.138 0.078-0.125 0.114 0.661 1.836 0.441 0.966 0.819 1.774 0.839 1.795 0.045 0.045 2.418-1.019 2.418-1.084 0-0.024-0.038-0.095-0.084-0.158-0.078-0.106-0.159-0.081-1.089 0.346l-1.005 0.461-0.157-0.342c-1.085-2.374-1.334-2.901-1.385-2.915-0.033-0.010-0.122 0.018-0.199 0.062zM32.419 4.538c-0.377 0.242-0.531 0.622-0.419 1.037 0.037 0.137 0.259 0.527 0.495 0.869 0.597 0.866 0.635 1.248 0.146 1.481-0.321 0.153-0.698 0.033-1.113-0.355-0.315-0.295-0.643-0.819-0.643-1.030 0-0.123-0.069-0.128-0.225-0.014-0.357 0.261 0.497 1.467 1.268 1.791 0.478 0.201 0.955 0.085 1.289-0.312 0.158-0.188 0.176-0.255 0.153-0.581-0.023-0.31-0.077-0.441-0.352-0.841-0.722-1.052-0.786-1.286-0.433-1.601 0.248-0.222 0.501-0.239 0.853-0.060 0.335 0.171 0.777 0.623 0.875 0.898 0.091 0.253 0.111 0.262 0.286 0.134 0.122-0.090 0.122-0.097-0.003-0.374-0.162-0.358-0.657-0.857-1.032-1.038-0.377-0.182-0.865-0.184-1.145-0.005zM5.291 4.795c-0.115 0.127-0.089 0.169 1.065 1.707l1.182 1.577 1.058-0.793c0.962-0.72 1.051-0.804 0.979-0.918-0.043-0.070-0.095-0.126-0.116-0.126s-0.434 0.292-0.919 0.649l-0.881 0.649-1.078-1.437c-0.593-0.791-1.099-1.438-1.125-1.438s-0.101 0.058-0.165 0.13zM35.857 6.865c-0.115 0.087-0.099 0.124 0.278 0.664l0.399 0.571-0.573 0.407c-0.315 0.224-0.98 0.695-1.477 1.046-0.795 0.562-0.896 0.654-0.838 0.763 0.037 0.068 0.094 0.141 0.127 0.162s0.719-0.425 1.525-0.989c1.412-0.99 1.467-1.022 1.566-0.898 0.055 0.071 0.242 0.326 0.414 0.566 0.285 0.399 0.323 0.43 0.443 0.355 0.073-0.045 0.123-0.108 0.113-0.139-0.032-0.096-1.786-2.602-1.821-2.602-0.018 0-0.087 0.042-0.154 0.092zM2.513 7.687c-0.045 0.072-0.082 0.161-0.082 0.198 0 0.066 1.946 3.659 2.042 3.769 0.027 0.031 0.099-0.019 0.159-0.113 0.108-0.164 0.103-0.182-0.168-0.685l-0.279-0.516 1.334-1.778 1.145 0.248 0.114-0.151c0.063-0.083 0.094-0.169 0.069-0.19-0.045-0.038-4.061-0.914-4.189-0.914-0.035 0-0.101 0.059-0.145 0.13zM4.337 8.291c0.343 0.075 0.662 0.156 0.707 0.181 0.058 0.031-0.082 0.267-0.46 0.778-0.299 0.404-0.558 0.735-0.577 0.737-0.034 0.002-1.117-1.923-1.117-1.987 0-0.020 0.185 0.007 0.411 0.060s0.691 0.158 1.035 0.232zM20.943 9.070c-0.093 0.073-1.813 2.022-3.823 4.331l-3.655 4.199-0.703 0.041c-1.053 0.062-1.13 0.080-1.13 0.263 0 0.28 0.255 0.982 0.395 1.088 0.134 0.101 0.119 0.124-0.718 1.082-0.653 0.748-0.838 0.999-0.785 1.065 0.083 0.101 0.172 0.030 1.382-1.092l0.81-0.751 1.314-0.012c1.853-0.018 3.628-0.278 6.111-0.895 3.227-0.803 5.824-1.897 6.925-2.915 0.461-0.427 0.567-0.678 0.512-1.207-0.044-0.419-0.291-1.273-0.36-1.242-0.025 0.011-0.341 0.216-0.702 0.454-1.933 1.275-4.265 2.331-6.513 2.948-1.133 0.311-3.206 0.739-4.298 0.889-0.415 0.057-0.813 0.116-0.883 0.131-0.148 0.033-0.131 0.016 1.325-1.337 0.551-0.511 1.050-0.929 1.11-0.929s0.209 0.062 0.332 0.138c0.193 0.119 0.241 0.126 0.347 0.049 0.217-0.157 4.538-5.042 4.597-5.197 0.088-0.233-0.014-0.398-0.463-0.753-0.671-0.53-0.831-0.58-1.126-0.347zM36.674 11.469c-0.442 0.123-0.723 0.294-0.996 0.605-0.423 0.482-0.587 1.12-0.454 1.767 0.15 0.723 0.508 1.225 1.071 1.498 1.106 0.538 2.467 0.002 2.85-1.12 0.136-0.401 0.090-1.199-0.093-1.611-0.408-0.918-1.426-1.406-2.379-1.14zM0.609 11.719c-0.55 0.597-0.738 1.662-0.42 2.383 0.322 0.73 1.013 1.167 1.849 1.171 0.619 0.003 1.066-0.182 1.45-0.598 0.433-0.47 0.553-0.801 0.553-1.532 0.001-0.37-0.034-0.707-0.086-0.829-0.082-0.195-0.122-0.213-0.821-0.367l-0.735-0.162-0.057 0.161c-0.073 0.206-0.028 0.233 0.697 0.412 0.656 0.162 0.68 0.193 0.668 0.851-0.018 0.94-0.749 1.709-1.625 1.709-0.316 0-0.81-0.174-1.080-0.379-0.121-0.092-0.299-0.303-0.397-0.469-0.155-0.265-0.177-0.371-0.177-0.861 0.001-0.634 0.114-0.922 0.514-1.306 0.197-0.189 0.22-0.24 0.154-0.345-0.113-0.181-0.197-0.154-0.488 0.162zM37.935 11.943c0.352 0.139 0.751 0.62 0.878 1.057 0.32 1.101-0.442 2.123-1.586 2.129-0.719 0.003-1.298-0.39-1.545-1.049-0.267-0.714-0.126-1.342 0.412-1.836 0.266-0.244 0.404-0.309 0.936-0.437 0.185-0.045 0.612 0.020 0.905 0.136zM35.53 16.867c-0.025 0.024-0.044 0.109-0.044 0.187 0 0.125 0.073 0.164 0.559 0.294 0.307 0.082 0.559 0.168 0.561 0.19s-0.065 0.327-0.147 0.679l-0.15 0.639-0.68 0.264c-0.374 0.145-0.705 0.264-0.737 0.264-0.050 0-0.195 0.398-0.161 0.444 0.007 0.009 0.332-0.102 0.722-0.246s0.734-0.263 0.764-0.263 0.087 0.125 0.129 0.278c0.113 0.418 0.53 0.802 0.972 0.897 0.639 0.137 1.154-0.107 1.465-0.69 0.17-0.32 0.631-1.903 0.571-1.963-0.030-0.030-3.658-1.018-3.741-1.018-0.021-0.001-0.058 0.019-0.082 0.043zM37.991 17.878c0.447 0.117 0.839 0.235 0.872 0.264 0.033 0.030-0.022 0.343-0.127 0.729-0.153 0.557-0.23 0.724-0.431 0.941-0.239 0.257-0.258 0.264-0.682 0.264-0.429 0-0.442-0.006-0.695-0.277-0.335-0.359-0.357-0.638-0.119-1.53 0.18-0.677 0.179-0.675 0.28-0.637 0.049 0.019 0.455 0.13 0.903 0.246zM13.614 18.246c0.233 0.211 0.069 0.614-0.251 0.614-0.166 0-0.417-0.209-0.417-0.347 0-0.315 0.427-0.486 0.669-0.267zM1.209 19.261l-0.058 0.402-0.311-0.275c-0.297-0.262-0.445-0.296-0.445-0.102 0 0.049 0.118 0.183 0.263 0.297s0.263 0.23 0.263 0.257c0 0.026-0.161 0.099-0.358 0.161-0.262 0.082-0.349 0.139-0.322 0.209 0.047 0.124 0.086 0.121 0.489-0.031l0.336-0.128-0.045 0.243c-0.025 0.133-0.061 0.324-0.080 0.423-0.030 0.151-0.013 0.181 0.102 0.181s0.144-0.053 0.181-0.33c0.024-0.181 0.072-0.347 0.107-0.369s0.177 0.073 0.317 0.209c0.213 0.208 0.27 0.234 0.354 0.165 0.087-0.072 0.059-0.121-0.21-0.363l-0.31-0.281 0.377-0.119c0.393-0.124 0.41-0.138 0.321-0.279-0.043-0.069-0.124-0.059-0.406 0.048-0.193 0.073-0.358 0.126-0.367 0.118s0.014-0.157 0.051-0.33c0.073-0.345 0.042-0.506-0.098-0.506-0.062 0-0.11 0.13-0.15 0.401zM33.39 21.687c-0.439 0.577-0.814 1.088-0.833 1.137-0.041 0.107 0.136 0.269 0.231 0.211 0.037-0.023 0.366-0.432 0.731-0.909s0.69-0.878 0.723-0.89 0.313 0.175 0.622 0.417c0.385 0.301 0.543 0.463 0.502 0.515-1.203 1.543-1.221 1.571-1.095 1.663 0.067 0.049 0.138 0.088 0.158 0.087s0.303-0.356 0.628-0.788c0.326-0.433 0.615-0.786 0.645-0.787 0.066 0 1.097 0.781 1.097 0.831 0 0.021-0.31 0.445-0.688 0.943l-0.689 0.907 0.15 0.098c0.146 0.096 0.166 0.077 0.922-0.918 0.425-0.558 0.787-1.054 0.805-1.101 0.026-0.069-1.598-1.358-3.002-2.385-0.095-0.070-0.211 0.054-0.908 0.969zM5.501 21.799c-0.107 0.107-0.068 0.159 0.742 0.971l0.856 0.858-1.098 1.005-0.71-0.712c-0.622-0.624-0.725-0.703-0.831-0.637-0.067 0.042-0.122 0.106-0.122 0.142s0.309 0.376 0.687 0.756l0.687 0.691-0.936 1.028-0.831-0.829c-0.827-0.825-0.832-0.829-0.953-0.694s-0.113 0.145 0.792 1.071c0.503 0.515 0.939 0.946 0.969 0.959 0.057 0.025 2.804-2.678 2.804-2.758 0-0.059-1.841-1.964-1.898-1.964-0.025 0-0.096 0.051-0.158 0.113zM8.438 24.955c0.025 0.317 0.061 0.671 0.082 0.789 0.037 0.207 0.031 0.214-0.191 0.214-0.456 0-0.665 0.084-0.971 0.391-0.491 0.491-0.564 1.028-0.221 1.626 0.184 0.32 0.271 0.387 1.256 0.962l0.737 0.431 0.224-0.374c0.123-0.206 0.573-0.977 1.001-1.713 0.734-1.266 0.769-1.344 0.653-1.429-0.202-0.148-0.257-0.111-0.51 0.353-0.134 0.244-0.269 0.483-0.301 0.531-0.045 0.069-0.188 0.013-0.653-0.251-0.327-0.186-0.61-0.376-0.627-0.422s-0.054-0.387-0.080-0.757c-0.039-0.557-0.071-0.695-0.182-0.799-0.233-0.217-0.262-0.157-0.215 0.449zM9.26 26.746c0.33 0.19 0.617 0.373 0.637 0.404 0.035 0.057-0.877 1.698-0.943 1.698-0.018 0-0.255-0.122-0.526-0.272-0.871-0.481-1.114-0.788-1.053-1.333 0.062-0.548 0.494-0.92 1.012-0.87 0.174 0.017 0.489 0.151 0.873 0.373zM31.817 26.919l-0.185 0.367-0.217-0.338c-0.174-0.271-0.235-0.322-0.308-0.262-0.076 0.063-0.068 0.114 0.051 0.314 0.078 0.131 0.167 0.266 0.197 0.301 0.116 0.131 0.043 0.167-0.339 0.167-0.331 0-0.394 0.018-0.394 0.115 0 0.099 0.054 0.112 0.402 0.093l0.403-0.023-0.206 0.361c-0.177 0.308-0.191 0.366-0.102 0.401 0.057 0.022 0.117 0.040 0.131 0.040s0.101-0.148 0.193-0.329c0.091-0.181 0.178-0.329 0.192-0.329s0.11 0.133 0.213 0.295c0.102 0.163 0.222 0.296 0.265 0.296 0.166 0 0.151-0.141-0.042-0.422-0.11-0.16-0.201-0.308-0.201-0.329s0.178-0.038 0.394-0.038c0.359 0 0.394-0.013 0.394-0.141 0-0.133-0.022-0.139-0.394-0.1-0.217 0.023-0.394 0.019-0.394-0.007s0.073-0.167 0.162-0.311c0.189-0.307 0.202-0.399 0.067-0.451-0.070-0.027-0.153 0.069-0.285 0.329zM25.771 26.712c-0.38 0.118-0.77 0.397-0.938 0.669l-0.138 0.222-0.69-0.395-0.072 0.159c-0.068 0.149-0.050 0.171 0.291 0.364 0.269 0.152 0.353 0.233 0.323 0.311-0.023 0.058-0.059 0.278-0.081 0.489-0.039 0.381-0.039 0.383 0.134 0.383 0.163 0 0.174-0.019 0.175-0.312 0.002-0.515 0.030-0.519 0.775-0.109l0.67 0.369-0.168 0.199c-0.22 0.262-0.424 0.667-0.424 0.843 0 0.264 0.211 0.6 0.437 0.694 0.313 0.131 0.546 0.112 0.918-0.074 0.352-0.175 0.617-0.535 0.617-0.837 0-0.223-0.251-0.577-0.542-0.766l-0.243-0.158 0.205-0.234c0.614-0.699 0.57-1.484-0.099-1.788-0.318-0.145-0.746-0.156-1.15-0.030zM12.872 26.898c-0.891 0.335-1.382 1.019-1.396 1.951-0.013 0.831 0.389 1.46 1.157 1.814 0.351 0.162 0.494 0.19 0.97 0.19 0.457 0 0.617-0.029 0.878-0.157 0.717-0.353 1.125-1.022 1.126-1.847 0.001-0.842-0.405-1.459-1.197-1.822-0.431-0.197-1.187-0.261-1.538-0.129zM26.789 27.15c0.243 0.228 0.31 0.525 0.186 0.822-0.101 0.242-0.402 0.614-0.497 0.614-0.045 0-1.444-0.769-1.498-0.823-0.015-0.015 0.052-0.131 0.149-0.259 0.401-0.525 1.278-0.712 1.659-0.353zM14.26 27.347c0.398 0.168 0.704 0.486 0.851 0.883l0.003 0.011c0.157 0.418 0.165 0.671 0.035 1.106-0.358 1.202-1.955 1.545-2.841 0.611-0.703-0.741-0.502-2.107 0.377-2.555 0.551-0.282 1.014-0.298 1.574-0.055zM17.123 27.814c-0.019 0.117-0.043 1.019-0.054 2.004l-0.019 1.791h0.166c0.146 0 0.272-0.174 1.045-1.45 0.483-0.798 0.901-1.426 0.929-1.397s0.411 0.697 0.853 1.483c0.674 1.202 0.826 1.429 0.95 1.429 0.138 0 0.151-0.036 0.19-0.542 0.023-0.298 0.042-1.202 0.042-2.009l0.001-1.466-0.181 0.021-0.181 0.021-0.033 1.577-0.033 1.577-0.519-0.919c-0.909-1.611-1.029-1.807-1.11-1.806-0.043 0.001-0.434 0.589-0.867 1.305l-0.789 1.304-0.035-3.136h-0.16c-0.13 0-0.167 0.041-0.194 0.214zM26.866 29.242c0.426 0.308 0.461 0.714 0.084 0.967-0.278 0.187-0.593 0.193-0.783 0.017-0.221-0.205-0.189-0.511 0.089-0.875 0.128-0.168 0.257-0.305 0.286-0.305s0.175 0.089 0.324 0.197z"></path>
</symbol>
<symbol id="facebook" viewBox="0 0 32 32">
<path d="M19 6h5v-6h-5c-3.86 0-7 3.14-7 7v3h-4v6h4v16h6v-16h5l1-6h-6v-3c0-0.542 0.458-1 1-1z"></path>
</symbol>
<symbol id="instagram" viewBox="0 0 32 32">
<path d="M16 2.881c4.275 0 4.781 0.019 6.462 0.094 1.563 0.069 2.406 0.331 2.969 0.55 0.744 0.288 1.281 0.638 1.837 1.194 0.563 0.563 0.906 1.094 1.2 1.838 0.219 0.563 0.481 1.412 0.55 2.969 0.075 1.688 0.094 2.194 0.094 6.463s-0.019 4.781-0.094 6.463c-0.069 1.563-0.331 2.406-0.55 2.969-0.288 0.744-0.637 1.281-1.194 1.837-0.563 0.563-1.094 0.906-1.837 1.2-0.563 0.219-1.413 0.481-2.969 0.55-1.688 0.075-2.194 0.094-6.463 0.094s-4.781-0.019-6.463-0.094c-1.563-0.069-2.406-0.331-2.969-0.55-0.744-0.288-1.281-0.637-1.838-1.194-0.563-0.563-0.906-1.094-1.2-1.837-0.219-0.563-0.481-1.413-0.55-2.969-0.075-1.688-0.094-2.194-0.094-6.463s0.019-4.781 0.094-6.463c0.069-1.563 0.331-2.406 0.55-2.969 0.288-0.744 0.638-1.281 1.194-1.838 0.563-0.563 1.094-0.906 1.838-1.2 0.563-0.219 1.412-0.481 2.969-0.55 1.681-0.075 2.188-0.094 6.463-0.094zM16 0c-4.344 0-4.887 0.019-6.594 0.094-1.7 0.075-2.869 0.35-3.881 0.744-1.056 0.412-1.95 0.956-2.837 1.85-0.894 0.888-1.438 1.781-1.85 2.831-0.394 1.019-0.669 2.181-0.744 3.881-0.075 1.713-0.094 2.256-0.094 6.6s0.019 4.887 0.094 6.594c0.075 1.7 0.35 2.869 0.744 3.881 0.413 1.056 0.956 1.95 1.85 2.837 0.887 0.887 1.781 1.438 2.831 1.844 1.019 0.394 2.181 0.669 3.881 0.744 1.706 0.075 2.25 0.094 6.594 0.094s4.888-0.019 6.594-0.094c1.7-0.075 2.869-0.35 3.881-0.744 1.050-0.406 1.944-0.956 2.831-1.844s1.438-1.781 1.844-2.831c0.394-1.019 0.669-2.181 0.744-3.881 0.075-1.706 0.094-2.25 0.094-6.594s-0.019-4.887-0.094-6.594c-0.075-1.7-0.35-2.869-0.744-3.881-0.394-1.063-0.938-1.956-1.831-2.844-0.887-0.887-1.781-1.438-2.831-1.844-1.019-0.394-2.181-0.669-3.881-0.744-1.712-0.081-2.256-0.1-6.6-0.1v0z"></path>
<path d="M16 7.781c-4.537 0-8.219 3.681-8.219 8.219s3.681 8.219 8.219 8.219 8.219-3.681 8.219-8.219c0-4.537-3.681-8.219-8.219-8.219zM16 21.331c-2.944 0-5.331-2.387-5.331-5.331s2.387-5.331 5.331-5.331c2.944 0 5.331 2.387 5.331 5.331s-2.387 5.331-5.331 5.331z"></path>
<path d="M26.462 7.456c0 1.060-0.859 1.919-1.919 1.919s-1.919-0.859-1.919-1.919c0-1.060 0.859-1.919 1.919-1.919s1.919 0.859 1.919 1.919z"></path>
</symbol>
<symbol id="twitter" viewBox="0 0 32 32">
<path d="M32 7.075c-1.175 0.525-2.444 0.875-3.769 1.031 1.356-0.813 2.394-2.1 2.887-3.631-1.269 0.75-2.675 1.3-4.169 1.594-1.2-1.275-2.906-2.069-4.794-2.069-3.625 0-6.563 2.938-6.563 6.563 0 0.512 0.056 1.012 0.169 1.494-5.456-0.275-10.294-2.888-13.531-6.862-0.563 0.969-0.887 2.1-0.887 3.3 0 2.275 1.156 4.287 2.919 5.463-1.075-0.031-2.087-0.331-2.975-0.819 0 0.025 0 0.056 0 0.081 0 3.181 2.263 5.838 5.269 6.437-0.55 0.15-1.131 0.231-1.731 0.231-0.425 0-0.831-0.044-1.237-0.119 0.838 2.606 3.263 4.506 6.131 4.563-2.25 1.762-5.075 2.813-8.156 2.813-0.531 0-1.050-0.031-1.569-0.094 2.913 1.869 6.362 2.95 10.069 2.95 12.075 0 18.681-10.006 18.681-18.681 0-0.287-0.006-0.569-0.019-0.85 1.281-0.919 2.394-2.075 3.275-3.394z"></path>
</symbol>
<symbol id="linkedin" viewBox="0 0 32 32">
<path d="M12 12h5.535v2.837h0.079c0.77-1.381 2.655-2.837 5.464-2.837 5.842 0 6.922 3.637 6.922 8.367v9.633h-5.769v-8.54c0-2.037-0.042-4.657-3.001-4.657-3.005 0-3.463 2.218-3.463 4.509v8.688h-5.767v-18z"></path>
<path d="M2 12h6v18h-6v-18z"></path>
<path d="M8 7c0 1.657-1.343 3-3 3s-3-1.343-3-3c0-1.657 1.343-3 3-3s3 1.343 3 3z"></path>
</symbol>
</defs>
</svg>
